# xmcd
# 
# Track frame offsets:
#   150
#   18067
#   36352
#   55942
#   72990
#   92645
#   110362
#   124790
#   141737
#   156519
#   176367
#   193067
#   209912
#   225512
#   239594
# 
# Disc length: 3407 seconds
# 
# Revision: 2
# Processed by: cddbd v1.5.1PL2 Copyright (c) Steve Scherf et al.
# Submitted via: Synapstar 1.0 
# 
DISCID=de0d4d0f
DTITLE=Various Artist - SC8646
DYEAR=1900
DGENRE=Country
TTITLE0=Reba McEntire - We're So Good Together
TTITLE1=Andy Griggs - Waitin' On Sundown
TTITLE2=Travis Tritt - Best Of Intentions
TTITLE3=Dixie Chicks, The - Without You
TTITLE4=Jolie and Wanted - I Would
TTITLE5=John Michael Montgomery - Little Girl, The
TTITLE6=Clark Family Experience, The - Meanwhile Back At The Ranch
TTITLE7=Chalee Tennison - Makin' Up With You
TTITLE8=Gary Allan - Right Where I Need To Be
TTITLE9=Eric Heatherly - Swimming In Champagne
TTITLE10=Lonestar - Tell Her
TTITLE11=Montgomery Gentry - All Night Long
TTITLE12=Andy Griggs - You Made Me That Way
TTITLE13=Dwight Yoakam - What Do You Know About Love
TTITLE14=Mark Wills - Everything There Is To Know About You
EXTD=MediaType: Karaoke CD+G Producer: Soundchoice
EXTT0=
EXTT1=
EXTT2=
EXTT3=
EXTT4=
EXTT5=
EXTT6=
EXTT7=
EXTT8=
EXTT9=
EXTT10=
EXTT11=
EXTT12=
EXTT13=
EXTT14=
PLAYORDER=
